<?xml version="1.0" encoding="UTF-8" standalone="no"?>
<!DOCTYPE svg PUBLIC "-//W3C//DTD SVG 1.1//EN" "http://www.w3.org/Graphics/SVG/1.1/DTD/svg11.dtd">
<svg version="1.1" xmlns="http://www.w3.org/2000/svg" xmlns:xlink="http://www.w3.org/1999/xlink" preserveAspectRatio="xMidYMid meet" viewBox="0 0 1920 640" width="480" height="160"><defs><path d="M512.47 644.09L512.47 644L303.17 644L303.17 644.09L207.56 644.09L207.56 644L0 644L0 586.68L102.82 586.68L102.82 376.07L207.56 376.07L207.56 99.54L303.17 99.54L303.17 423.28L342.07 423.28L342.07 205.35L413.44 205.35L413.44 380.87L512.47 380.87L512.47 144.99L649.78 144.99L649.78 502.09L686.11 502.09L686.11 413.46L797.09 413.46L797.09 205.35L916.91 205.35L916.91 325.58L1016.27 325.58L1016.27 99.54L1136.09 99.54L1136.09 502.09L1253.24 502.09L1253.24 453.61L1385.18 453.61L1385.18 552.09L1425.66 552.09L1425.66 144.9L1530.33 144.9L1530.33 247.86L1682.94 247.86L1682.94 413.46L1807.6 413.46L1807.6 453.61L1889.12 453.61L1889.12 586.68L1920 586.68L1920 644L1136.09 644L1136.09 644.09L1016.27 644.09L1016.27 644L819.83 644L819.83 644.09L715.76 644.09L715.76 644L649.78 644L649.78 644.09L512.47 644.09Z" id="b6hu5TRUsI"></path></defs><g><g><g><use xlink:href="#b6hu5TRUsI" opacity="1" fill="#d5c5ef" fill-opacity="1"></use></g></g></g></svg>