<?xml version="1.0" encoding="UTF-8" standalone="no"?>
<!DOCTYPE svg PUBLIC "-//W3C//DTD SVG 1.1//EN" "http://www.w3.org/Graphics/SVG/1.1/DTD/svg11.dtd">
<svg version="1.1" xmlns="http://www.w3.org/2000/svg" xmlns:xlink="http://www.w3.org/1999/xlink" preserveAspectRatio="xMidYMid meet" viewBox="0 0 1920 640" width="480" height="160"><defs><path d="M31.55 585.49L31.55 488.14L135.03 488.14L135.03 138.63L241.03 138.63L241.03 1.49L364.8 1.49L364.8 241.49L480.8 241.49L480.8 488.23L546.14 488.23L546.14 1.49L665.96 1.49L665.96 583.26L694.11 583.26L694.11 111.03L767.24 111.03L767.24 413.49L830.11 413.49L830.11 111.03L941.24 111.03L941.24 225.03L1039.24 225.03L1039.24 305.03L1152.11 305.03L1152.11 1.49L1283.24 1.49L1283.24 413.49L1333.42 413.49L1333.42 167.49L1453.24 167.49L1453.24 53.49L1564.36 53.49L1564.36 309.49L1713.24 309.49L1713.24 1.49L1814.36 1.49L1814.36 585.49L1920 585.49L1920 644.09L0 644.09L0 585.49L31.55 585.49Z" id="dCjXZK0og"></path></defs><g><g><g><use xlink:href="#dCjXZK0og" opacity="1" fill="#e6e2ec" fill-opacity="1"></use></g></g></g></svg>