<?xml version="1.0" encoding="UTF-8" standalone="no"?>
<!DOCTYPE svg PUBLIC "-//W3C//DTD SVG 1.1//EN" "http://www.w3.org/Graphics/SVG/1.1/DTD/svg11.dtd">
<svg version="1.1" xmlns="http://www.w3.org/2000/svg" xmlns:xlink="http://www.w3.org/1999/xlink" preserveAspectRatio="xMidYMid meet" viewBox="0 0 640 640" width="640" height="640"><defs><path d="M394.14 72.1L513.96 72.1L513.96 650.84L394.14 650.84L394.14 72.1Z" id="jbM7SXkYw"></path><path d="M535.6 105.54L618.73 105.54L618.73 642.79L535.6 642.79L535.6 105.54Z" id="cfGZTp6BS"></path><path d="M-0.63 102.75L87.39 102.75L87.39 640L-0.63 640L-0.63 102.75Z" id="d2mXFKETiJ"></path><path d="M108.2 243.86L228.02 243.86L228.02 640L108.2 640L108.2 243.86Z" id="a16t961LsG"></path><path d="M203.69 34.19L327.46 34.19L327.46 640L203.69 640L203.69 34.19Z" id="a4WJ8s1llN"></path><path d="M540.72 406.76L642.52 406.76L642.52 637.3L540.72 637.3L540.72 406.76Z" id="airgiIGYk"></path><path d="M21.61 138.2L117.22 138.2L117.22 640L21.61 640L21.61 138.2Z" id="aTK3SfYeh"></path><path d="M85.41 406.76L195.95 406.76L195.95 640L85.41 640L85.41 406.76Z" id="a6bG7uDPF"></path><path d="M173.42 201.35L261.44 201.35L261.44 640L173.42 640L173.42 201.35Z" id="aA6gRh4gy"></path><path d="M246.94 374.17L370.71 374.17L370.71 637.3L246.94 637.3L246.94 374.17Z" id="a12bcFPT7B"></path><path d="M356.47 138.2L493.78 138.2L493.78 637.3L356.47 637.3L356.47 138.2Z" id="c2qUAFGZJ6"></path><path d="M0 279.64L139.64 279.64L139.64 640L0 640L0 279.64Z" id="c1Va7bHxSI"></path><path d="M129.41 441.8L207.21 441.8L207.21 640L129.41 640L129.41 441.8Z" id="avezIZoDv"></path><path d="M203.6 328.29L305.41 328.29L305.41 640L203.6 640L203.6 328.29Z" id="b26IS6Q3RX"></path><path d="M296.4 521.08L458.56 521.08L458.56 640L296.4 640L296.4 521.08Z" id="huvNXxG36"></path><path d="M441.44 198.56L586.49 198.56L586.49 640L441.44 640L441.44 198.56Z" id="e1R1PWvNwT"></path><path d="M575.68 447.21L640 447.21L640 640L575.68 640L575.68 447.21Z" id="c2ONt1naFu"></path></defs><g><g><g><use xlink:href="#jbM7SXkYw" opacity="1" fill="#b9b0c8" fill-opacity="1"></use></g><g><use xlink:href="#cfGZTp6BS" opacity="1" fill="#b9b0c8" fill-opacity="1"></use></g><g><use xlink:href="#d2mXFKETiJ" opacity="1" fill="#b9b0c8" fill-opacity="1"></use></g><g><use xlink:href="#a16t961LsG" opacity="1" fill="#b9b0c8" fill-opacity="1"></use></g><g><use xlink:href="#a4WJ8s1llN" opacity="1" fill="#b9b0c8" fill-opacity="1"></use></g><g><use xlink:href="#airgiIGYk" opacity="1" fill="#aa92d2" fill-opacity="1"></use></g><g><use xlink:href="#aTK3SfYeh" opacity="1" fill="#aa92d2" fill-opacity="1"></use></g><g><use xlink:href="#a6bG7uDPF" opacity="1" fill="#aa92d2" fill-opacity="1"></use></g><g><use xlink:href="#aA6gRh4gy" opacity="1" fill="#aa92d2" fill-opacity="1"></use></g><g><use xlink:href="#a12bcFPT7B" opacity="1" fill="#aa92d2" fill-opacity="1"></use></g><g><use xlink:href="#c2qUAFGZJ6" opacity="1" fill="#aa92d2" fill-opacity="1"></use></g><g><use xlink:href="#c1Va7bHxSI" opacity="1" fill="#7e57c2" fill-opacity="1"></use></g><g><use xlink:href="#avezIZoDv" opacity="1" fill="#7e57c2" fill-opacity="1"></use></g><g><use xlink:href="#b26IS6Q3RX" opacity="1" fill="#7e57c2" fill-opacity="1"></use></g><g><use xlink:href="#huvNXxG36" opacity="1" fill="#7e57c2" fill-opacity="1"></use></g><g><use xlink:href="#e1R1PWvNwT" opacity="1" fill="#7e57c2" fill-opacity="1"></use></g><g><use xlink:href="#c2ONt1naFu" opacity="1" fill="#7e57c2" fill-opacity="1"></use></g></g></g></svg>