<svg version="1" xmlns="http://www.w3.org/2000/svg" width="933.333" height="933.333" viewBox="0 0 700.000000 700.000000"><path d="M222.9 41.5V220l-2.2.1c-1.2 0-8.6.1-16.4.1-9.9 0-14.3.4-14.4 1.2 0 .6-.1 11-.2 23.1l-.2 22h-61l-.2-56.5c-.1-31.1-.2-57.1-.2-57.7-.1-.9-4.4-1.3-16.3-1.5l-16.3-.3-.1-18c-.1-9.9-.2-18.5-.3-19-.1-.7-15.6-1.1-47.3-1H.5L.2 406.3 0 700h700V445.1l-11.6-.3-11.6-.3v-329l-44.7.1c-24.5.1-45 .2-45.6.3-.7.1-1 17.6-1 50.3v50.3l-11.7.3-11.7.3-.1-65.3V79H431v72h-41v258l-6.7.1c-3.8 0-10.8.1-15.8.1l-9 .2-.2-179c-.1-98.4-.2-182.1-.3-185.9v-7.1H223l-.1 4.1z"/></svg>