<?xml version="1.0" standalone="no"?>
<!DOCTYPE svg PUBLIC "-//W3C//DTD SVG 20010904//EN"
 "http://www.w3.org/TR/2001/REC-SVG-20010904/DTD/svg10.dtd">
<svg version="1.0" xmlns="http://www.w3.org/2000/svg"
 width="640.000000pt" height="640.000000pt" viewBox="0 0 640.000000 640.000000"
 preserveAspectRatio="xMidYMid meet">
<metadata>
Created by potrace 1.11, written by Peter Selinger 2001-2013
</metadata>
<g transform="translate(0.000000,640.000000) scale(0.100000,-0.100000)"
fill="#000000" stroke="none">
<path d="M1280 4200 l0 -1140 -60 0 -60 0 -2 428 -3 427 -297 3 -298 2 0 -670
0 -670 -165 0 -165 0 0 -1020 0 -1020 -115 0 -115 0 0 -270 0 -270 3200 0
3200 0 0 1100 0 1100 -170 0 -170 0 0 -440 0 -440 -65 0 -65 0 0 730 0 730
-113 0 -114 0 -6 152 c-4 83 -7 558 -7 1055 l0 903 -680 0 -680 0 0 -1180 0
-1180 -200 0 -200 0 0 555 0 555 -300 0 -300 0 0 320 0 320 -355 0 -355 0 0
-610 0 -610 -80 0 -80 0 0 -475 0 -475 -115 0 -115 0 0 1615 0 1615 -475 0
-475 0 0 -1140z"/>
</g>
</svg>
