<?xml version="1.0" encoding="UTF-8" standalone="no"?>
<!DOCTYPE svg PUBLIC "-//W3C//DTD SVG 1.1//EN" "http://www.w3.org/Graphics/SVG/1.1/DTD/svg11.dtd">
<svg version="1.1" xmlns="http://www.w3.org/2000/svg" xmlns:xlink="http://www.w3.org/1999/xlink" preserveAspectRatio="xMidYMid meet" viewBox="0 0 1920 640" width="480" height="160"><defs><path d="M1456.36 332.29L1456.36 451.21L1498.36 451.21L1498.36 332.29L1566.36 332.29L1566.36 274.56L1644.18 274.56L1644.18 525.08L1734.36 525.08L1734.36 360.19L1844.18 360.19L1844.18 584.54L1920 584.54L1920 644L741.11 644L741.11 644.09L591.88 644.09L591.88 644L0 644L0 584.54L66 584.54L66 445.8L178.82 445.8L178.82 247.86L280.62 247.86L280.62 445.8L364.87 445.8L364.87 332.29L457.5 332.29L457.5 525.08L591.88 525.08L591.88 247.95L741.11 247.95L741.11 451.21L833.84 451.21L833.84 360.19L985.88 360.19L985.88 246.47L1079.11 246.47L1079.11 410.76L1198.18 410.76L1198.18 584.54L1307.88 584.54L1307.88 246.47L1367.11 246.47L1367.11 332.29L1456.36 332.29Z" id="cfxrZpNDe"></path></defs><g><g><g><use xlink:href="#cfxrZpNDe" opacity="1" fill="#7e57c2" fill-opacity="1"></use></g></g></g></svg>